<svg width="892" height="892" viewBox="0 0 892 892" fill="none" xmlns="http://www.w3.org/2000/svg">
<path d="M273.5 274.5C333.147 274.5 381.5 226.147 381.5 166.5C381.5 106.853 333.147 58.5 273.5 58.5C213.853 58.5 165.5 106.853 165.5 166.5C165.5 226.147 213.853 274.5 273.5 274.5Z" fill="white" stroke="white"/>
<path d="M727.5 383.5C787.147 383.5 835.5 335.147 835.5 275.5C835.5 215.853 787.147 167.5 727.5 167.5C667.853 167.5 619.5 215.853 619.5 275.5C619.5 335.147 667.853 383.5 727.5 383.5Z" fill="white" stroke="white"/>
<path d="M619.5 832.5C679.147 832.5 727.5 784.147 727.5 724.5C727.5 664.853 679.147 616.5 619.5 616.5C559.853 616.5 511.5 664.853 511.5 724.5C511.5 784.147 559.853 832.5 619.5 832.5Z" fill="white" stroke="white"/>
<path d="M164.5 723.5C224.147 723.5 272.5 675.147 272.5 615.5C272.5 555.853 224.147 507.5 164.5 507.5C104.853 507.5 56.5 555.853 56.5 615.5C56.5 675.147 104.853 723.5 164.5 723.5Z" fill="white" stroke="white"/>
<path d="M446.5 555.5C506.147 555.5 554.5 507.147 554.5 447.5C554.5 387.853 506.147 339.5 446.5 339.5C386.853 339.5 338.5 387.853 338.5 447.5C338.5 507.147 386.853 555.5 446.5 555.5Z" fill="white" stroke="white"/>
<path d="M273.5 275C333.423 275 382 226.423 382 166.5C382 106.577 333.423 58 273.5 58C213.577 58 165 106.577 165 166.5C165 226.423 213.577 275 273.5 275Z" fill="white"/>
<path d="M273.5 270C330.661 270 377 223.661 377 166.5C377 109.339 330.661 63 273.5 63C216.339 63 170 109.339 170 166.5C170 223.661 216.339 270 273.5 270Z" stroke="black" stroke-opacity="0.1" stroke-width="10"/>
<path d="M727.5 384C787.423 384 836 335.423 836 275.5C836 215.577 787.423 167 727.5 167C667.577 167 619 215.577 619 275.5C619 335.423 667.577 384 727.5 384Z" fill="white"/>
<path d="M727.5 379C784.661 379 831 332.661 831 275.5C831 218.339 784.661 172 727.5 172C670.339 172 624 218.339 624 275.5C624 332.661 670.339 379 727.5 379Z" stroke="black" stroke-opacity="0.1" stroke-width="10"/>
<path d="M619.5 833C679.423 833 728 784.423 728 724.5C728 664.577 679.423 616 619.5 616C559.577 616 511 664.577 511 724.5C511 784.423 559.577 833 619.5 833Z" fill="white"/>
<path d="M619.5 828C676.661 828 723 781.661 723 724.5C723 667.339 676.661 621 619.5 621C562.339 621 516 667.339 516 724.5C516 781.661 562.339 828 619.5 828Z" stroke="black" stroke-opacity="0.1" stroke-width="10"/>
<path d="M164.5 724C224.423 724 273 675.423 273 615.5C273 555.577 224.423 507 164.5 507C104.577 507 56 555.577 56 615.5C56 675.423 104.577 724 164.5 724Z" fill="white"/>
<path d="M164.5 719C221.661 719 268 672.661 268 615.5C268 558.339 221.661 512 164.5 512C107.339 512 61 558.339 61 615.5C61 672.661 107.339 719 164.5 719Z" stroke="black" stroke-opacity="0.1" stroke-width="10"/>
<path d="M446.5 556C506.423 556 555 507.423 555 447.5C555 387.577 506.423 339 446.5 339C386.577 339 338 387.577 338 447.5C338 507.423 386.577 556 446.5 556Z" fill="white"/>
<path d="M446.5 551C503.661 551 550 504.661 550 447.5C550 390.339 503.661 344 446.5 344C389.339 344 343 390.339 343 447.5C343 504.661 389.339 551 446.5 551Z" stroke="black" stroke-opacity="0.1" stroke-width="10"/>
</svg>
